<svg width="304" height="304" fill="none" xmlns="http://www.w3.org/2000/svg"><rect width="304" height="304" rx="84.444" fill="url(#paint0_linear)"/><mask id="mask0" maskUnits="userSpaceOnUse" x="0" y="0" width="304" height="304"><rect width="304" height="304" rx="84.444" fill="#fff"/></mask><g mask="url(#mask0)"><g filter="url(#filter0_f)"><rect x="277" y="237" width="169" height="19" rx="8.444" transform="rotate(-90 277 237)" fill="#C4FFE6"/></g><g filter="url(#filter1_f)"><rect x="277" y="101" width="33" height="19" rx="8.444" transform="rotate(-90 277 101)" fill="#C4FFE6"/></g><g filter="url(#filter2_f)"><rect x="7" y="237" width="169" height="19" rx="8.444" transform="rotate(-90 7 237)" fill="#C4FFE6"/></g><g filter="url(#filter3_f)"><rect x="7" y="101" width="33" height="19" rx="8.444" transform="rotate(-90 7 101)" fill="#C4FFE6"/></g><g filter="url(#filter4_f)"><rect x="44" y="19" width="216" height="24" rx="8.444" fill="#C4FFE6"/></g></g><g filter="url(#filter5_b)"><g filter="url(#filter6_d)"><path d="M152 88.667c-34.96 0-63.333 28.373-63.333 63.333 0 34.96 28.373 63.333 63.333 63.333 34.96 0 63.333-28.373 63.333-63.333 0-34.96-28.373-63.333-63.333-63.333zm-12.667 95L107.667 152l8.93-8.93 22.736 22.673 48.07-48.07 8.93 8.994-57 57z" fill="#fff" fill-opacity=".55"/></g></g><defs><filter id="filter0_f" x="244.864" y="35.864" width="83.272" height="233.272" filterUnits="userSpaceOnUse" color-interpolation-filters="sRGB"><feFlood flood-opacity="0" result="BackgroundImageFix"/><feBlend in="SourceGraphic" in2="BackgroundImageFix" result="shape"/><feGaussianBlur stdDeviation="16.068" result="effect1_foregroundBlur"/></filter><filter id="filter1_f" x="244.864" y="35.864" width="83.272" height="97.272" filterUnits="userSpaceOnUse" color-interpolation-filters="sRGB"><feFlood flood-opacity="0" result="BackgroundImageFix"/><feBlend in="SourceGraphic" in2="BackgroundImageFix" result="shape"/><feGaussianBlur stdDeviation="16.068" result="effect1_foregroundBlur"/></filter><filter id="filter2_f" x="-25.136" y="35.864" width="83.272" height="233.272" filterUnits="userSpaceOnUse" color-interpolation-filters="sRGB"><feFlood flood-opacity="0" result="BackgroundImageFix"/><feBlend in="SourceGraphic" in2="BackgroundImageFix" result="shape"/><feGaussianBlur stdDeviation="16.068" result="effect1_foregroundBlur"/></filter><filter id="filter3_f" x="-25.136" y="35.864" width="83.272" height="97.272" filterUnits="userSpaceOnUse" color-interpolation-filters="sRGB"><feFlood flood-opacity="0" result="BackgroundImageFix"/><feBlend in="SourceGraphic" in2="BackgroundImageFix" result="shape"/><feGaussianBlur stdDeviation="16.068" result="effect1_foregroundBlur"/></filter><filter id="filter4_f" x="11.864" y="-13.136" width="280.272" height="88.272" filterUnits="userSpaceOnUse" color-interpolation-filters="sRGB"><feFlood flood-opacity="0" result="BackgroundImageFix"/><feBlend in="SourceGraphic" in2="BackgroundImageFix" result="shape"/><feGaussianBlur stdDeviation="16.068" result="effect1_foregroundBlur"/></filter><filter id="filter5_b" x="0" y="0" width="304" height="304" filterUnits="userSpaceOnUse" color-interpolation-filters="sRGB"><feFlood flood-opacity="0" result="BackgroundImageFix"/><feGaussianBlur in="BackgroundImage" stdDeviation="38"/><feComposite in2="SourceAlpha" operator="in" result="effect1_backgroundBlur"/><feBlend in="SourceGraphic" in2="effect1_backgroundBlur" result="shape"/></filter><filter id="filter6_d" x="83.6" y="88.667" width="136.8" height="139.333" filterUnits="userSpaceOnUse" color-interpolation-filters="sRGB"><feFlood flood-opacity="0" result="BackgroundImageFix"/><feColorMatrix in="SourceAlpha" values="0 0 0 0 0 0 0 0 0 0 0 0 0 0 0 0 0 0 127 0"/><feOffset dy="7.6"/><feGaussianBlur stdDeviation="2.533"/><feColorMatrix values="0 0 0 0 0 0 0 0 0 0 0 0 0 0 0 0 0 0 0.0693564 0"/><feBlend in2="BackgroundImageFix" result="effect1_dropShadow"/><feBlend in="SourceGraphic" in2="effect1_dropShadow" result="shape"/></filter><linearGradient id="paint0_linear" x1="239" y1="0" x2="37" y2="291" gradientUnits="userSpaceOnUse"><stop offset=".05" stop-color="#0DBE49"/><stop offset="1" stop-color="#4B93FF"/></linearGradient></defs></svg>