<svg width="120" height="30" fill="none" xmlns="http://www.w3.org/2000/svg"><path d="M5.783 5.444c.68.227 1.669.559 2.489 1.133 1.026.714 1.57 1.656 1.615 2.795.03.972-.347 1.838-1.087 2.507-.875.744-2.143 1.184-3.517 1.184-.09 0-.211 0-.332-.015C2.566 12.927.634 11.56.06 9.54L0 9.327l1.872-.44.06.181c.438 1.52 1.917 2.127 3.155 2.173.95.045 1.826-.213 2.355-.684.332-.319.498-.699.483-1.14-.016-.561-.287-1.017-.846-1.397-.498-.35-1.177-.607-2.022-.88-.03-.008-.06-.02-.091-.031a.845.845 0 00-.09-.03 1.03 1.03 0 01-.093-.036.778.778 0 00-.028-.01c-.032-.01-.063-.022-.09-.032-.052-.018-.098-.034-.137-.044l-.03-.015a4.159 4.159 0 00-.12-.046c-.042-.015-.084-.03-.121-.045a.098.098 0 01-.04-.01c-.008-.003-.015-.006-.02-.006l-.031-.015c-.589-.197-1.48-.516-2.219-1.063C1.042 5.089.62 4.223.694 3.205.83 1.655 2.204 0 4.951 0c2.158 0 3.743.927 4.468 2.597l.09.198-1.81.668-.076-.182a2.237 2.237 0 00-.981-1.094c-.453-.243-1.027-.364-1.706-.364-.015 0-.589.015-1.162.212-.725.259-1.117.7-1.163 1.307-.03.41.166.76.604 1.063.408.289.951.501 1.645.744.07.018.134.04.196.062.046.016.091.032.136.045l.06.015c.137.06.288.106.439.152h.03l.062.02zm72.33 7.361h8.121v-1.823h-6.415V.152h-1.932V12.79h.226v.015zM31.23 29.97V16.01l10.295.03v2.871H34.49v2.643h7.034v2.887H34.49v2.658h7.034v2.886h-9.63v-.015h-.665zM21.087 16.056l2.249 9.858 2.657-9.873h3.184L25.42 30h-4.347l-1.585-6.957L17.902 30h-4.347L9.796 16.04h3.185l2.672 9.89 2.249-9.874-.015-.015h3.2v.015zM22.159.152h-1.933V12.79h1.933V.152zm83.667 12.653H96.83v-.015h-.226V.152h9.222v1.807h-7.29v3.555h6.838v1.808h-6.838v3.66h7.29v1.823zm-41.237 6.501H98.58V30h3.261V19.306h3.969V16.01H64.589v3.296zm52.151 2.248V16.01H120v13.96h-3.26v-5.53h-4.831V30h-3.26V16.04h3.26v5.514h4.831zM43.894 4.268s.559 6.684.74 8.34l.015.182h1.962L45.268.334l-.03-.182h-1.645L39.758 8.08 35.924.151h-1.66l-1.328 12.411-.03.228h1.947l.936-8.689 3.97 8.385.18-.395c.755-1.564 3.955-7.823 3.955-7.823z" fill="#000"/><path d="M58.355 16.04h3.26v10.664h34.023V30H58.355V16.04z" fill="#000"/><path fill-rule="evenodd" clip-rule="evenodd" d="M48.09 16.04L43.473 30h3.17l.618-1.853h5.133L53.01 30h3.185l-4.619-13.96H48.09zm.046 9.433l1.675-5.058 1.676 5.058h-3.351zM62.807 7.595h-3.064v5.21h-1.932V.152h5.012c.649 0 1.268.091 1.841.258a4.716 4.716 0 011.525.73c.422.318.754.713 1.011 1.2.226.455.347.971.347 1.533 0 .578-.105 1.079-.347 1.535-.242.47-.589.88-1.011 1.2-.423.303-.921.546-1.525.744-.543.167-1.162.243-1.857.243zm0-5.62h-3.064v3.797h3.064c.499 0 .921-.06 1.284-.167.317-.091.618-.243.86-.41a1.73 1.73 0 00.498-.577c.106-.243.166-.486.166-.76 0-.258-.045-.516-.166-.744a1.57 1.57 0 00-.483-.577 3.154 3.154 0 00-.875-.395 4.616 4.616 0 00-1.283-.167z" fill="#000"/></svg>