<svg width="65" height="50" fill="none" xmlns="http://www.w3.org/2000/svg"><mask id="path-1-inside-1" fill="#fff"><path fill-rule="evenodd" clip-rule="evenodd" d="M.35.763h16.163v32.326H65v16.163H16.513v-.001H.35V.763zm32.323 0v16.163H65V.763H32.673z"/></mask><path d="M16.513.763h1v-1h-1v1zM.35.763v-1h-1v1h1zm16.163 32.326h-1v1h1v-1zm48.487 0h1v-1h-1v1zm0 16.163v1h1v-1h-1zm-48.488 0h-1v1h1v-1zm0-.001h1v-1h-1v1zm-16.162 0h-1v1h1v-1zm32.323-32.325h-1v1h1v-1zm0-16.163v-1h-1v1h1zM65 16.926v1h1v-1h-1zM65 .763h1v-1h-1v1zm-48.486-1H.35v2h16.163v-2zm1 33.326V.763h-2v32.326h2zm47.487-1H16.514v2H65v-2zm1 17.163V33.089h-2v16.163h2zm-49.488 1h48.489v-2h-48.49v2zm-1-1.001h2-2zm-15.162 1h16.162v-2H.35v2zM-.65.763V49.25h2V.763h-2zm34.323 16.163V.763h-2v16.163h2zm31.326-1H32.673v2H65v-2zm-1-15.163v16.163h2V.763h-2zm-31.326 1H65v-2H32.673v2z" fill="#A6B1BD" mask="url(#path-1-inside-1)"/></svg>