<svg width="11" height="11" fill="none" xmlns="http://www.w3.org/2000/svg"><g clip-path="url(#clip0)"><path d="M2.47 5.85h8.204V4.618H2.47l2.968-2.954L4.654.88.3 5.234l4.354 4.354.784-.77L2.47 5.85zm21.7-4.046c-.21-.966-.7-1.736-1.456-2.296-.77-.56-1.68-.84-2.744-.84-1.428 0-2.576.49-3.43 1.442-.868.952-1.288 2.226-1.288 3.794 0 1.582.406 2.856 1.218 3.822.812.98 1.932 1.456 3.374 1.456 1.512 0 2.59-.476 3.206-1.456L23.121 9h1.12V3.82H20.21v1.232h2.688v.266c0 .504-.098.938-.28 1.302-.182.364-.42.63-.728.826a3.233 3.233 0 01-.938.406 4.314 4.314 0 01-1.05.126c-.952 0-1.722-.364-2.31-1.092-.588-.728-.882-1.722-.882-2.982 0-1.26.294-2.254.896-2.968.588-.7 1.358-1.064 2.296-1.064.784 0 1.414.182 1.89.518.476.35.812.826.994 1.414h1.386zm8.883 3.458c0-1.26-.364-2.24-1.078-2.912-.727-.672-1.567-1.008-2.534-1.008-.98 0-1.82.336-2.534 1.008-.728.672-1.078 1.652-1.078 2.912 0 1.274.35 2.24 1.079 2.912a3.566 3.566 0 002.534 1.008c.965 0 1.805-.336 2.534-1.008.713-.672 1.077-1.638 1.077-2.912zm-3.612 2.8c-.643 0-1.175-.224-1.61-.7-.434-.462-.643-1.162-.643-2.1 0-.952.21-1.666.643-2.114.42-.448.966-.686 1.61-.686.63 0 1.163.238 1.596.7.434.476.659 1.176.659 2.1 0 .91-.224 1.61-.659 2.086-.448.476-.98.714-1.596.714zm8.655-9.212V9H42.1c1.092 0 1.96-.238 2.632-.728.672-.49 1.008-1.246 1.008-2.268 0-1.176-.518-1.974-1.54-2.408.336-.196.616-.504.812-.91.196-.392.308-.84.308-1.33 0-1.666-1.19-2.506-3.57-2.506h-3.654zm1.428 4.34V.054h2.45c.588 0 1.05.126 1.386.378.336.252.518.616.518 1.12 0 1.092-.644 1.638-1.904 1.638h-2.45zm0 4.606V4.324h2.506c.756 0 1.33.14 1.694.406.364.28.546.7.546 1.288 0 1.19-.728 1.778-2.156 1.778h-2.59zm7.334-.784c0 .672.238 1.204.742 1.596.49.392 1.106.574 1.848.574 1.232 0 2.086-.406 2.576-1.218 0 .336.042.672.098 1.036h1.288c-.14-.728-.21-1.666-.196-2.842l.014-1.736c0-1.064-.238-1.848-.714-2.352-.49-.504-1.246-.756-2.282-.756-.784 0-1.47.238-2.058.686-.588.462-.91 1.078-.966 1.848h1.316c.028-.462.182-.826.49-1.092.294-.266.7-.406 1.232-.406.504 0 .924.154 1.232.434.308.294.476.756.476 1.4v.182c-.854.098-1.568.21-2.128.322a8.552 8.552 0 00-1.568.462c-.476.196-.84.448-1.064.756a1.849 1.849 0 00-.336 1.106zm5.194-1.638v.476c0 .826-.224 1.414-.658 1.778-.448.364-.994.546-1.666.546-.448 0-.812-.098-1.064-.322-.266-.21-.392-.504-.392-.868a.91.91 0 01.252-.644c.168-.182.42-.336.784-.462a10.8 10.8 0 011.162-.294c.42-.07.952-.14 1.582-.21zm9.346-1.386c-.098-.686-.434-1.302-1.008-1.834-.574-.532-1.288-.812-2.142-.812-1.106 0-1.988.378-2.646 1.106-.672.728-.994 1.666-.994 2.8 0 1.176.308 2.114.952 2.842.644.728 1.498 1.092 2.562 1.092.84 0 1.582-.252 2.212-.77.63-.504 1.008-1.134 1.148-1.862h-1.316c-.098.42-.322.784-.686 1.078-.364.294-.812.434-1.316.434-.616 0-1.12-.238-1.54-.728-.42-.49-.63-1.19-.63-2.1 0-.896.21-1.582.63-2.058.42-.476.924-.714 1.54-.714.476 0 .896.154 1.26.434s.588.644.686 1.092h1.29zm2.795-5.138H62.92V9h1.274V6.48l.882-.952L67.638 9h1.554L65.93 4.59l2.87-3.122h-1.568l-3.038 3.388V-1.15z" fill="#000"/></g><defs><clipPath id="clip0"><path fill="#fff" d="M0 0h11v11H0z"/></clipPath></defs></svg>