<svg width="64" height="64" fill="none" xmlns="http://www.w3.org/2000/svg"><g filter="url(#filter0_b)"><rect width="64" height="64" rx="32" fill="#fff"/></g><path fill-rule="evenodd" clip-rule="evenodd" d="M24.222 20.36A14 14 0 0132 18a14.016 14.016 0 0114 14 14 14 0 11-21.778-11.64zM26 41v1.377a11.899 11.899 0 0012 0V41a3.004 3.004 0 00-3-3h-6a3.003 3.003 0 00-3 3zm12.504-3.559a5.002 5.002 0 011.489 3.485 12 12 0 10-15.986 0A5.002 5.002 0 0129 36h6c1.312.002 2.57.52 3.504 1.441zm-9.282-12.598a4.999 4.999 0 115.555 8.312 4.999 4.999 0 01-5.555-8.312zm1.111 6.651a3 3 0 103.333-4.987 3 3 0 00-3.333 4.987z" fill="#0D41FF"/><defs><filter id="filter0_b" x="-24" y="-24" width="112" height="112" filterUnits="userSpaceOnUse" color-interpolation-filters="sRGB"><feFlood flood-opacity="0" result="BackgroundImageFix"/><feGaussianBlur in="BackgroundImage" stdDeviation="12"/><feComposite in2="SourceAlpha" operator="in" result="effect1_backgroundBlur"/><feBlend in="SourceGraphic" in2="effect1_backgroundBlur" result="shape"/></filter></defs></svg>