<svg width="64" height="64" fill="none" xmlns="http://www.w3.org/2000/svg"><g filter="url(#filter0_b)"><rect width="64" height="64" rx="32" fill="#fff"/></g><path fill-rule="evenodd" clip-rule="evenodd" d="M20.778 26.326a4 4 0 104.444-6.653 4 4 0 00-4.444 6.653zm1.11-4.989a2 2 0 112.223 3.325 2 2 0 01-2.222-3.325zM31 22h13v2H31v-2zm0 18h13v2H31v-2zm2-9H20v2h13v-2zM23 45a4 4 0 110-8 4 4 0 010 8zm0-6a2 2 0 100 4 2 2 0 000-4zm15.778-3.674a4 4 0 104.444-6.653 4 4 0 00-4.444 6.653zm1.11-4.989a2 2 0 112.223 3.325 2 2 0 01-2.222-3.325z" fill="#0D41FF"/><defs><filter id="filter0_b" x="-24" y="-24" width="112" height="112" filterUnits="userSpaceOnUse" color-interpolation-filters="sRGB"><feFlood flood-opacity="0" result="BackgroundImageFix"/><feGaussianBlur in="BackgroundImage" stdDeviation="12"/><feComposite in2="SourceAlpha" operator="in" result="effect1_backgroundBlur"/><feBlend in="SourceGraphic" in2="effect1_backgroundBlur" result="shape"/></filter></defs></svg>