<svg width="64" height="64" fill="none" xmlns="http://www.w3.org/2000/svg"><g filter="url(#filter0_b)"><rect width="64" height="64" rx="32" fill="#fff"/></g><path fill-rule="evenodd" clip-rule="evenodd" d="M18 20l2-2 2 2-2 2-2-2zm14-2l-2 2 2 2 2-2-2-2zm-4 4.586L45.414 40a2 2 0 010 2.828l-2.587 2.586a2.002 2.002 0 01-2.828 0L22.586 28a2.002 2.002 0 010-2.828l2.586-2.586a2.048 2.048 0 012.828 0zM26.586 24L24 26.586l5 5L31.585 29l-5-5zm3.827 9.001l11 10.999L44 41.414l-11-11-2.587 2.587zM18 32l2-2 2 2-2 2-2-2z" fill="#0D41FF"/><defs><filter id="filter0_b" x="-24" y="-24" width="112" height="112" filterUnits="userSpaceOnUse" color-interpolation-filters="sRGB"><feFlood flood-opacity="0" result="BackgroundImageFix"/><feGaussianBlur in="BackgroundImage" stdDeviation="12"/><feComposite in2="SourceAlpha" operator="in" result="effect1_backgroundBlur"/><feBlend in="SourceGraphic" in2="effect1_backgroundBlur" result="shape"/></filter></defs></svg>