<svg width="64" height="64" fill="none" xmlns="http://www.w3.org/2000/svg"><g filter="url(#filter0_b)"><rect width="64" height="64" rx="32" fill="#fff"/></g><path d="M41.333 18.667H35.76C35.2 17.12 33.733 16 32 16c-1.733 0-3.2 1.12-3.76 2.667h-5.573A2.674 2.674 0 0020 21.333v21.334c0 1.466 1.2 2.666 2.667 2.666h18.666c1.467 0 2.667-1.2 2.667-2.666V21.333c0-1.466-1.2-2.666-2.667-2.666zm-9.333 0c.733 0 1.333.6 1.333 1.333s-.6 1.333-1.333 1.333-1.333-.6-1.333-1.333.6-1.333 1.333-1.333zm9.333 24H22.667V21.333h2.666v4h13.334v-4h2.666v21.334z" fill="#2B58F8"/><defs><filter id="filter0_b" x="-24" y="-24" width="112" height="112" filterUnits="userSpaceOnUse" color-interpolation-filters="sRGB"><feFlood flood-opacity="0" result="BackgroundImageFix"/><feGaussianBlur in="BackgroundImage" stdDeviation="12"/><feComposite in2="SourceAlpha" operator="in" result="effect1_backgroundBlur"/><feBlend in="SourceGraphic" in2="effect1_backgroundBlur" result="shape"/></filter></defs></svg>