<svg width="304" height="304" fill="none" xmlns="http://www.w3.org/2000/svg"><rect width="304" height="304" rx="84.444" fill="url(#paint0_linear)"/><mask id="mask0" maskUnits="userSpaceOnUse" x="0" y="0" width="304" height="304"><rect width="304" height="304" rx="84.444" fill="#fff"/></mask><g mask="url(#mask0)"><g filter="url(#filter0_f)"><rect x="277" y="237" width="169" height="19" rx="8.444" transform="rotate(-90 277 237)" fill="#88F8FF"/></g><g filter="url(#filter1_f)"><rect x="277" y="101" width="33" height="19" rx="8.444" transform="rotate(-90 277 101)" fill="#88F8FF"/></g><g filter="url(#filter2_f)"><rect x="7" y="237" width="169" height="19" rx="8.444" transform="rotate(-90 7 237)" fill="#88F8FF"/></g><g filter="url(#filter3_f)"><rect x="7" y="101" width="33" height="19" rx="8.444" transform="rotate(-90 7 101)" fill="#88F8FF"/></g><g filter="url(#filter4_f)"><rect x="44" y="19" width="216" height="24" rx="8.444" fill="#88F8FF"/></g></g><g opacity=".8" filter="url(#filter5_d)"><path d="M99.958 188.628c-13.346 0-21.046-12.713-21.046-36.471 0-23.757 7.7-36.471 21.046-36.471 13.475 0 21.174 12.714 21.174 36.471 0 23.758-7.699 36.471-21.174 36.471zm0 11.815c24.896 0 37.087-19.648 37.087-48.286 0-28.38-12.191-48.157-37.087-48.157C75.32 104 63 123.777 63 152.157c0 28.638 12.32 48.286 36.958 48.286z" fill="url(#paint1_linear)"/><path d="M156.958 198.774v-17.466h-17.452v17.466h17.452z" fill="url(#paint2_linear)"/><path d="M197.166 188.628c-12.32 0-17.966-7.576-19.378-18.364h-14.757c1.026 16.053 12.319 30.179 33.878 30.179 18.479 0 34.392-11.044 34.392-31.848 0-20.932-14.758-31.848-30.67-31.848-8.342 0-14.758 2.183-19.249 5.779l2.951-23.373h43.118v-13.484h-55.694l-6.16 51.753 14.373.771c1.925-5.522 8.085-9.76 16.811-9.76 9.239 0 18.736 6.55 18.736 20.419 0 12.456-8.085 19.776-18.351 19.776z" fill="url(#paint3_linear)"/><path opacity=".4" d="M247.131 121.152c3.57 0 5.418-2.614 5.418-6.596 0-4.013-1.817-6.534-5.418-6.534-3.665 0-5.449 2.458-5.449 6.534 0 3.982 1.848 6.596 5.449 6.596zm0-1.991c-1.625 0-2.613-1.494-2.613-4.605 0-3.08.988-4.511 2.613-4.511 1.626 0 2.582 1.431 2.582 4.511 0 3.111-.956 4.605-2.582 4.605zm4.048 11.636l15.934-22.557h-4.015l-15.935 22.557h4.016zm16.03.217c3.569 0 5.418-2.613 5.418-6.595 0-4.014-1.817-6.534-5.418-6.534-3.665 0-5.45 2.458-5.45 6.534 0 3.982 1.849 6.595 5.45 6.595zm0-1.991c-1.626 0-2.613-1.493-2.613-4.604 0-3.081.987-4.512 2.613-4.512 1.625 0 2.581 1.431 2.581 4.512 0 3.111-.956 4.604-2.581 4.604z" fill="#fff"/></g><g filter="url(#filter6_d)"><rect x="103" y="237" width="88" height="29" rx="14.5" fill="url(#paint4_linear)"/><path d="M113.203 255.525h2.089l.493-1.481h3.214l.505 1.481h2.135l-3.145-8.322h-2.158l-3.133 8.322zm4.201-6.244l1.067 3.168h-2.146l1.079-3.168zm13.19 6.244v-8.322H128.7v5.739l-3.34-5.739h-2.387v8.322h1.894v-5.739l3.34 5.739h2.387zm9.762 0v-8.322h-1.894v5.739l-3.34-5.739h-2.387v8.322h1.894v-5.739l3.34 5.739h2.387zm2.003-8.322v4.764c0 2.743 1.125 3.707 3.616 3.707 2.594 0 3.581-1.217 3.581-3.776v-4.695h-1.963v4.855c0 1.229-.241 2.009-1.618 2.009-1.378 0-1.653-.677-1.653-1.894v-4.97h-1.963zm7.964 8.322h2.089l.494-1.481h3.213l.505 1.481h2.135l-3.145-8.322h-2.158l-3.133 8.322zm4.201-6.244l1.067 3.168h-2.146l1.079-3.168zm7.532-2.078h-1.963v8.322h5.957v-1.733h-3.994v-6.589zm7.34 0h-1.962v8.322h5.957v-1.733h-3.995v-6.589zm3.271 0l3.134 5.085v3.237h1.963v-3.214l3.214-5.108h-2.273l-1.882 3.191-1.86-3.191h-2.296z" fill="#0D41FF"/></g><path d="M89.505 76.827l2.15-7.747v7.747h2.205V67.16h-3.545l-1.885 6.933-1.846-6.933H83v9.667h2.204v-7.734l2.164 7.734h2.137zm5.762 0h2.416l.571-1.72h3.717l.584 1.72h2.47l-3.638-9.667h-2.496l-3.624 9.667zm4.859-7.254l1.235 3.68h-2.483l1.248-3.68zm15.256 7.254V67.16h-2.19v6.667l-3.864-6.667h-2.761v9.667h2.19V70.16l3.864 6.667h2.761zm1.403 0h2.417l.571-1.72h3.717l.584 1.72h2.469l-3.637-9.667h-2.496l-3.625 9.667zm4.859-7.254l1.235 3.68h-2.482l1.247-3.68zM132.413 67c-2.92 0-4.912 1.907-4.912 4.96 0 3.093 1.753 5.04 4.58 5.04 1.381 0 2.324-.387 2.948-1.24l.066 1.067h1.739V71.44h-4.593v1.867h2.323v.186c0 1.227-1.089 1.627-2.137 1.627-1.54 0-2.523-1.093-2.523-3.16 0-2.04 1.089-3.08 2.483-3.08 1.234 0 1.898.64 2.111 1.307h2.23c-.465-2.107-2.191-3.187-4.315-3.187zm6.808 9.827h7.381v-2.014h-5.111v-1.946h4.832v-2.014h-4.832V69.16h5.111v-2h-7.381v9.667zm16.045 0l2.151-7.747v7.747h2.204V67.16h-3.545l-1.885 6.933-1.845-6.933h-3.585v9.667h2.204v-7.734l2.164 7.734h2.137zm6.834 0h7.382v-2.014h-5.111v-1.946h4.832v-2.014h-4.832V69.16h5.111v-2H162.1v9.667zm18.356 0V67.16h-2.19v6.667l-3.864-6.667h-2.761v9.667h2.191V70.16l3.863 6.667h2.761zm4.746 0h2.283V69.16h3.094v-2h-8.457v2h3.08v7.667zm10.653 0h2.27v-3.96h4.527v-2.014h-4.527V69.16h4.819v-2h-7.089v9.667zm8.685 0h7.381v-2.014h-5.111v-1.946h4.832v-2.014h-4.832V69.16h5.111v-2h-7.381v9.667zm9.54 0h7.382v-2.014h-5.112v-1.946h4.833v-2.014h-4.833V69.16h5.112v-2h-7.382v9.667z" opacity=".5" fill="#fff"/><defs><filter id="filter0_f" x="244.864" y="35.864" width="83.272" height="233.272" filterUnits="userSpaceOnUse" color-interpolation-filters="sRGB"><feFlood flood-opacity="0" result="BackgroundImageFix"/><feBlend in="SourceGraphic" in2="BackgroundImageFix" result="shape"/><feGaussianBlur stdDeviation="16.068" result="effect1_foregroundBlur"/></filter><filter id="filter1_f" x="244.864" y="35.864" width="83.272" height="97.272" filterUnits="userSpaceOnUse" color-interpolation-filters="sRGB"><feFlood flood-opacity="0" result="BackgroundImageFix"/><feBlend in="SourceGraphic" in2="BackgroundImageFix" result="shape"/><feGaussianBlur stdDeviation="16.068" result="effect1_foregroundBlur"/></filter><filter id="filter2_f" x="-25.136" y="35.864" width="83.272" height="233.272" filterUnits="userSpaceOnUse" color-interpolation-filters="sRGB"><feFlood flood-opacity="0" result="BackgroundImageFix"/><feBlend in="SourceGraphic" in2="BackgroundImageFix" result="shape"/><feGaussianBlur stdDeviation="16.068" result="effect1_foregroundBlur"/></filter><filter id="filter3_f" x="-25.136" y="35.864" width="83.272" height="97.272" filterUnits="userSpaceOnUse" color-interpolation-filters="sRGB"><feFlood flood-opacity="0" result="BackgroundImageFix"/><feBlend in="SourceGraphic" in2="BackgroundImageFix" result="shape"/><feGaussianBlur stdDeviation="16.068" result="effect1_foregroundBlur"/></filter><filter id="filter4_f" x="11.864" y="-13.136" width="280.272" height="88.272" filterUnits="userSpaceOnUse" color-interpolation-filters="sRGB"><feFlood flood-opacity="0" result="BackgroundImageFix"/><feBlend in="SourceGraphic" in2="BackgroundImageFix" result="shape"/><feGaussianBlur stdDeviation="16.068" result="effect1_foregroundBlur"/></filter><filter id="filter5_d" x="46" y="97" width="243.627" height="130.443" filterUnits="userSpaceOnUse" color-interpolation-filters="sRGB"><feFlood flood-opacity="0" result="BackgroundImageFix"/><feColorMatrix in="SourceAlpha" values="0 0 0 0 0 0 0 0 0 0 0 0 0 0 0 0 0 0 127 0"/><feOffset dy="10"/><feGaussianBlur stdDeviation="8.5"/><feColorMatrix values="0 0 0 0 0 0 0 0 0 0 0 0 0 0 0 0 0 0 0.110987 0"/><feBlend in2="BackgroundImageFix" result="effect1_dropShadow"/><feBlend in="SourceGraphic" in2="effect1_dropShadow" result="shape"/></filter><filter id="filter6_d" x="92.159" y="232.536" width="109.681" height="50.681" filterUnits="userSpaceOnUse" color-interpolation-filters="sRGB"><feFlood flood-opacity="0" result="BackgroundImageFix"/><feColorMatrix in="SourceAlpha" values="0 0 0 0 0 0 0 0 0 0 0 0 0 0 0 0 0 0 127 0"/><feOffset dy="6.377"/><feGaussianBlur stdDeviation="5.42"/><feColorMatrix values="0 0 0 0 0 0 0 0 0 0 0 0 0 0 0 0 0 0 0.110987 0"/><feBlend in2="BackgroundImageFix" result="effect1_dropShadow"/><feBlend in="SourceGraphic" in2="effect1_dropShadow" result="shape"/></filter><linearGradient id="paint0_linear" x1="271" y1="-10.5" x2="53.5" y2="275" gradientUnits="userSpaceOnUse"><stop stop-color="#00FFF0"/><stop offset="1" stop-color="#7614F5"/></linearGradient><linearGradient id="paint1_linear" x1="63" y1="104" x2="63" y2="200.443" gradientUnits="userSpaceOnUse"><stop stop-color="#E4FFFC"/><stop offset="1" stop-color="#BADEFF"/></linearGradient><linearGradient id="paint2_linear" x1="63" y1="104" x2="63" y2="200.443" gradientUnits="userSpaceOnUse"><stop stop-color="#E4FFFC"/><stop offset="1" stop-color="#BADEFF"/></linearGradient><linearGradient id="paint3_linear" x1="63" y1="104" x2="63" y2="200.443" gradientUnits="userSpaceOnUse"><stop stop-color="#E4FFFC"/><stop offset="1" stop-color="#BADEFF"/></linearGradient><linearGradient id="paint4_linear" x1="103" y1="237" x2="103" y2="266" gradientUnits="userSpaceOnUse"><stop stop-color="#BADEFF"/><stop offset="1" stop-color="#E4FFFC"/></linearGradient></defs></svg>