<svg width="130" height="30" fill="none" xmlns="http://www.w3.org/2000/svg"><path d="M6.246 5.444c.733.227 1.802.559 2.687 1.133 1.108.714 1.695 1.656 1.744 2.795.033.972-.375 1.838-1.174 2.507-.945.744-2.314 1.184-3.798 1.184-.098 0-.228 0-.358-.015C2.77 12.927.685 11.56.065 9.54L0 9.327l2.021-.44.065.181c.473 1.52 2.07 2.127 3.407 2.173 1.027.045 1.973-.213 2.543-.684.359-.319.538-.699.522-1.14-.016-.561-.31-1.017-.913-1.397-.538-.35-1.271-.607-2.184-.88-.033-.008-.065-.02-.098-.031a.963.963 0 00-.098-.03 1.171 1.171 0 01-.1-.036.874.874 0 00-.03-.01C5.1 7.023 5.067 7.01 5.037 7c-.056-.018-.105-.034-.147-.044l-.032-.015a4.724 4.724 0 00-.13-.046 4.724 4.724 0 01-.131-.045.113.113 0 01-.044-.01c-.008-.003-.015-.006-.021-.006l-.033-.015c-.636-.197-1.597-.516-2.396-1.063C1.125 5.089.668 4.223.75 3.205.897 1.655 2.38 0 5.347 0c2.33 0 4.042.927 4.825 2.597l.097.198-1.956.668-.081-.182a2.307 2.307 0 00-1.06-1.094c-.489-.243-1.108-.364-1.842-.364-.016 0-.635.015-1.255.212-.782.259-1.206.7-1.255 1.307-.033.41.18.76.652 1.063.44.289 1.027.501 1.777.744.075.018.144.04.211.062.05.016.099.032.147.045l.066.015c.146.06.31.106.472.152h.033l.068.02zm78.11 7.361h8.77v-1.823h-6.928V.152H84.11V12.79h.245v.015zM33.726 29.97V16.01l11.117.03v2.871h-7.596v2.643h7.596v2.887h-7.596v2.658h7.596v2.886h-10.4v-.015h-.717zM22.772 16.056l2.429 9.858 2.869-9.873h3.44L27.45 30h-4.694l-1.712-6.957L19.333 30h-4.695l-4.059-13.96h3.44l2.885 9.89 2.429-9.874-.017-.015h3.456v.015zM23.93.152h-2.087V12.79h2.086V.152zm90.354 12.653h-9.715v-.015h-.245V.152h9.96v1.807h-7.873v3.555h7.384v1.808h-7.384v3.66h7.873v1.823zM69.75 19.306h36.71V30h3.521V19.306h4.287V16.01H69.751v3.296zm56.319 2.248V16.01h3.521v13.96h-3.521v-5.53h-5.216V30h-3.521V16.04h3.521v5.514h5.216zM47.402 4.268s.603 6.684.799 8.34l.016.182h2.12L48.885.334l-.033-.182h-1.777l-4.14 7.929-4.14-7.93h-1.794l-1.434 12.411-.033.228h2.103l1.01-8.689 4.288 8.385.196-.395c.815-1.564 4.27-7.823 4.27-7.823z" fill="#000"/><path d="M63.018 16.04h3.521v10.664h36.742V30H63.018V16.04z" fill="#000"/><path fill-rule="evenodd" clip-rule="evenodd" d="M51.934 16.04L46.946 30h3.423l.668-1.853h5.543L57.248 30h3.44l-4.989-13.96h-3.765zm.049 9.433l1.81-5.058 1.809 5.058h-3.62zM67.827 7.595h-3.309v5.21h-2.087V.152h5.412c.701 0 1.37.091 1.989.258a5.278 5.278 0 011.646.73c.457.318.815.713 1.093 1.2.244.455.374.971.374 1.533 0 .578-.114 1.079-.374 1.535a3.6 3.6 0 01-1.093 1.2c-.456.303-.994.546-1.646.744-.587.167-1.255.243-2.005.243zm0-5.62h-3.309v3.797h3.309c.538 0 .994-.06 1.386-.167.342-.091.668-.243.929-.41.26-.182.424-.38.538-.577.114-.243.179-.486.179-.76 0-.258-.049-.516-.18-.744a1.605 1.605 0 00-.521-.577 3.541 3.541 0 00-.945-.395 5.36 5.36 0 00-1.386-.167z" fill="#000"/></svg>