<svg  xmlns="http://www.w3.org/2000/svg"  display="none">
    <symbol id="appstore" viewBox="0 0 94 23">
        <path
            d="M67.5602 9.8909V11.992H66.2043V13.3699H67.5602V18.0517C67.5602 19.6504 68.3048 20.2899 70.1779 20.2899C70.5071 20.2899 70.8206 20.2518 71.0949 20.2061V18.8435C70.8598 18.8663 70.7109 18.8815 70.4522 18.8815C69.6136 18.8815 69.2453 18.5009 69.2453 17.633V13.3699H71.0949V11.992H69.2453V9.8909H67.5602Z"
             />
        <path
            d="M75.8667 20.4041C78.359 20.4041 79.8873 18.7826 79.8873 16.0953C79.8873 13.4232 78.3511 11.7941 75.8667 11.7941C73.3744 11.7941 71.8382 13.4232 71.8382 16.0953C71.8382 18.7826 73.3665 20.4041 75.8667 20.4041ZM75.8667 18.95C74.4011 18.95 73.5781 17.9071 73.5781 16.0953C73.5781 14.2987 74.4011 13.2481 75.8667 13.2481C77.3244 13.2481 78.1552 14.2987 78.1552 16.0953C78.1552 17.8995 77.3244 18.95 75.8667 18.95Z"
             />
        <path
            d="M81.1949 20.2442H82.8799V15.3492C82.8799 14.1845 83.7812 13.4004 85.0587 13.4004C85.3566 13.4004 85.8581 13.4536 85.9992 13.4993V11.8854C85.819 11.8398 85.4976 11.8169 85.2468 11.8169C84.1339 11.8169 83.1856 12.4107 82.9426 13.2253H82.8172V11.9539H81.1949V20.2442Z"
             />
        <path
            d="M90.1832 13.1872C91.4293 13.1872 92.2444 14.0322 92.2836 15.334H87.973C88.0671 14.0398 88.937 13.1872 90.1832 13.1872ZM92.2758 18.0061C91.9623 18.6531 91.2647 19.0109 90.2459 19.0109C88.8978 19.0109 88.0279 18.0898 87.973 16.6358V16.5444H94V15.9735C94 13.3699 92.5658 11.7941 90.191 11.7941C87.7849 11.7941 86.2566 13.4765 86.2566 16.1257C86.2566 18.7749 87.7536 20.4041 90.1988 20.4041C92.1504 20.4041 93.5141 19.4905 93.8981 18.0061H92.2758Z"
             />
        <path
            d="M56.5099 17.1827C56.6399 19.2184 58.3864 20.5204 60.9858 20.5204C63.764 20.5204 65.5024 19.1553 65.5024 16.9776C65.5024 15.2654 64.5113 14.3185 62.1068 13.7741L60.8152 13.4664C59.2881 13.1192 58.6707 12.6537 58.6707 11.841C58.6707 10.8152 59.6292 10.1445 61.0671 10.1445C62.4318 10.1445 63.3741 10.7994 63.5447 11.8489H65.3155C65.2099 9.93149 63.4716 8.58224 61.0914 8.58224C58.5326 8.58224 56.8267 9.93149 56.8267 11.9593C56.8267 13.6321 57.7934 14.6263 59.9136 15.1076L61.4245 15.4626C62.976 15.8177 63.6584 16.3385 63.6584 17.2064C63.6584 18.2164 62.5861 18.9502 61.1239 18.9502C59.5561 18.9502 58.4676 18.2637 58.3133 17.1827H56.5099Z"
             />
        <path
            d="M39.0545 11.8169C37.8946 11.8169 36.8914 12.3803 36.3741 13.3242H36.2487V11.9539H34.6263V23H36.3114V18.9881H36.4446C36.8914 19.8636 37.8554 20.3812 39.0702 20.3812C41.2255 20.3812 42.597 18.7293 42.597 16.0953C42.597 13.4613 41.2255 11.8169 39.0545 11.8169ZM38.5764 18.912C37.1657 18.912 36.28 17.831 36.28 16.1029C36.28 14.3672 37.1657 13.2862 38.5843 13.2862C40.0107 13.2862 40.8649 14.3443 40.8649 16.0953C40.8649 17.8538 40.0107 18.912 38.5764 18.912Z"
             />
        <path
            d="M48.4933 11.8169C47.3334 11.8169 46.3302 12.3803 45.8129 13.3242H45.6875V11.9539H44.0651V23H45.7502V18.9881H45.8834C46.3302 19.8636 47.2942 20.3812 48.509 20.3812C50.6643 20.3812 52.0358 18.7293 52.0358 16.0953C52.0358 13.4613 50.6643 11.8169 48.4933 11.8169ZM48.0152 18.912C46.6045 18.912 45.7188 17.831 45.7188 16.1029C45.7188 14.3672 46.6045 13.2862 48.023 13.2862C49.4495 13.2862 50.3037 14.3443 50.3037 16.0953C50.3037 17.8538 49.4495 18.912 48.0152 18.912Z"
             />
        <path
            d="M31.6031 20.2442H33.5364L29.3042 8.85841H27.3465L23.1142 20.2442H24.9826L26.063 17.2222H30.5308L31.6031 20.2442ZM28.2319 10.9257H28.37L30.0678 15.7388H26.526L28.2319 10.9257Z"
             />
        <path
            d="M24.2461 0.270252V5.76283H26.2878C27.9728 5.76283 28.9486 4.75414 28.9486 2.99941C28.9486 1.27132 27.965 0.270252 26.2878 0.270252H24.2461ZM25.1239 1.04675H26.1898C27.3615 1.04675 28.0551 1.76996 28.0551 3.01083C28.0551 4.27074 27.3732 4.98633 26.1898 4.98633H25.1239V1.04675Z"
             />
        <path
            d="M31.937 5.84276C33.1832 5.84276 33.9473 5.03201 33.9473 3.68836C33.9473 2.35233 33.1792 1.53777 31.937 1.53777C30.6908 1.53777 29.9228 2.35233 29.9228 3.68836C29.9228 5.03201 30.6869 5.84276 31.937 5.84276ZM31.937 5.11575C31.2042 5.11575 30.7927 4.59428 30.7927 3.68836C30.7927 2.79006 31.2042 2.26478 31.937 2.26478C32.6659 2.26478 33.0813 2.79006 33.0813 3.68836C33.0813 4.59047 32.6659 5.11575 31.937 5.11575Z"
             />
        <path
            d="M40.4547 1.6177H39.6122L38.852 4.78079H38.7854L37.9076 1.6177H37.1003L36.2225 4.78079H36.1598L35.3957 1.6177H34.5414L35.717 5.76283H36.583L37.4608 2.71013H37.5275L38.4092 5.76283H39.283L40.4547 1.6177Z"
             />
        <path
            d="M41.425 5.76283H42.2675V3.33818C42.2675 2.6911 42.6633 2.28762 43.2864 2.28762C43.9095 2.28762 44.2073 2.61878 44.2073 3.28489V5.76283H45.0498V3.07935C45.0498 2.0935 44.5247 1.53777 43.5725 1.53777C42.9298 1.53777 42.5066 1.81563 42.2989 2.2762H42.2362V1.6177H41.425V5.76283Z"
             />
        <path d="M46.3767 5.76283H47.2192V0H46.3767V5.76283Z"  />
        <path
            d="M50.3879 5.84276C51.6341 5.84276 52.3982 5.03201 52.3982 3.68836C52.3982 2.35233 51.6302 1.53777 50.3879 1.53777C49.1418 1.53777 48.3737 2.35233 48.3737 3.68836C48.3737 5.03201 49.1378 5.84276 50.3879 5.84276ZM50.3879 5.11575C49.6551 5.11575 49.2437 4.59428 49.2437 3.68836C49.2437 2.79006 49.6551 2.26478 50.3879 2.26478C51.1168 2.26478 51.5322 2.79006 51.5322 3.68836C51.5322 4.59047 51.1168 5.11575 50.3879 5.11575Z"
             />
        <path
            d="M54.9086 5.14239C54.4501 5.14239 54.117 4.92543 54.117 4.55241C54.117 4.187 54.3834 3.99287 54.9713 3.95481L56.0136 3.8901V4.23648C56.0136 4.75034 55.5434 5.14239 54.9086 5.14239ZM54.693 5.83134C55.2534 5.83134 55.7197 5.59535 55.9744 5.18046H56.0411V5.76283H56.8522V2.9309C56.8522 2.05543 56.2488 1.53777 55.1789 1.53777C54.211 1.53777 53.5213 1.99453 53.4351 2.70632H54.2502C54.3443 2.41323 54.6695 2.24575 55.1398 2.24575C55.7158 2.24575 56.0136 2.49317 56.0136 2.9309V3.2887L54.8576 3.3534C53.8427 3.41431 53.2705 3.84442 53.2705 4.59047C53.2705 5.34794 53.8701 5.83134 54.693 5.83134Z"
             />
        <path
            d="M59.7113 5.83134C60.2992 5.83134 60.7968 5.56109 61.0516 5.10814H61.1182V5.76283H61.9254V0H61.0829V2.2762H61.0202C60.789 1.81944 60.2952 1.54919 59.7113 1.54919C58.6337 1.54919 57.9401 2.37898 57.9401 3.68836C57.9401 5.00156 58.6259 5.83134 59.7113 5.83134ZM59.9504 2.28382C60.6558 2.28382 61.0986 2.82813 61.0986 3.69217C61.0986 4.56002 60.6597 5.09672 59.9504 5.09672C59.2372 5.09672 58.81 4.56763 58.81 3.68836C58.81 2.81671 59.2411 2.28382 59.9504 2.28382Z"
             />
        <path
            d="M67.3889 5.84276C68.6351 5.84276 69.3992 5.03201 69.3992 3.68836C69.3992 2.35233 68.6311 1.53777 67.3889 1.53777C66.1428 1.53777 65.3747 2.35233 65.3747 3.68836C65.3747 5.03201 66.1388 5.84276 67.3889 5.84276ZM67.3889 5.11575C66.6561 5.11575 66.2446 4.59428 66.2446 3.68836C66.2446 2.79006 66.6561 2.26478 67.3889 2.26478C68.1178 2.26478 68.5332 2.79006 68.5332 3.68836C68.5332 4.59047 68.1178 5.11575 67.3889 5.11575Z"
             />
        <path
            d="M70.5145 5.76283H71.357V3.33818C71.357 2.6911 71.7528 2.28762 72.3759 2.28762C72.999 2.28762 73.2968 2.61878 73.2968 3.28489V5.76283H74.1393V3.07935C74.1393 2.0935 73.6142 1.53777 72.6619 1.53777C72.0193 1.53777 71.5961 1.81563 71.3884 2.2762H71.3257V1.6177H70.5145V5.76283Z"
             />
        <path
            d="M78.0196 0.586179V1.63673H77.3417V2.32569H78.0196V4.6666C78.0196 5.46593 78.3919 5.78567 79.3285 5.78567C79.4931 5.78567 79.6498 5.76664 79.787 5.7438V5.06246C79.6694 5.07388 79.595 5.08149 79.4656 5.08149C79.0463 5.08149 78.8622 4.89117 78.8622 4.45725V2.32569H79.787V1.63673H78.8622V0.586179H78.0196Z"
             />
        <path
            d="M80.9179 5.76283H81.7604V3.34198C81.7604 2.71393 82.1445 2.29143 82.8342 2.29143C83.4298 2.29143 83.7472 2.62639 83.7472 3.2887V5.76283H84.5898V3.08696C84.5898 2.10111 84.0294 1.54158 83.1202 1.54158C82.4776 1.54158 82.0269 1.81944 81.8192 2.28382H81.7526V0H80.9179V5.76283Z"
             />
        <path
            d="M87.6291 2.23433C88.2522 2.23433 88.6597 2.65684 88.6793 3.30773H86.524C86.5711 2.66065 87.006 2.23433 87.6291 2.23433ZM88.6754 4.64376C88.5187 4.9673 88.1699 5.1462 87.6605 5.1462C86.9865 5.1462 86.5515 4.68563 86.524 3.95861V3.91294H89.5375V3.62746C89.5375 2.32569 88.8204 1.53777 87.633 1.53777C86.43 1.53777 85.6658 2.37898 85.6658 3.70359C85.6658 5.0282 86.4143 5.84276 87.637 5.84276C88.6127 5.84276 89.2946 5.386 89.4866 4.64376H88.6754Z"
             />
        <path
            d="M13.9714 10.8995C13.9918 9.35781 14.8442 7.89906 16.1964 7.09158C15.3433 5.90821 13.9145 5.15793 12.428 5.11275C10.8425 4.9511 9.30541 6.03429 8.49746 6.03429C7.67388 6.03429 6.42992 5.1288 5.09038 5.15557C3.34435 5.21036 1.71661 6.17459 0.86713 7.65732C-0.958918 10.7282 0.403149 15.2413 2.15235 17.7236C3.02751 18.9391 4.05033 20.2968 5.38866 20.2487C6.69829 20.1959 7.18742 19.4375 8.76826 19.4375C10.3344 19.4375 10.7933 20.2487 12.1588 20.218C13.5641 20.1959 14.4495 18.9972 15.294 17.7702C15.9228 16.9041 16.4067 15.9469 16.7277 14.934C15.0762 14.2555 13.9733 12.6412 13.9714 10.8995Z"
             />
        <path
            d="M11.3922 3.4803C12.1584 2.58684 12.5359 1.43846 12.4445 0.279018C11.2739 0.398445 10.1925 0.941886 9.41594 1.80106C8.65655 2.64052 8.26136 3.7687 8.33607 4.88382C9.50712 4.89553 10.6584 4.36682 11.3922 3.4803Z"
             />
    </symbol>
    
    <symbol id="googleplay" viewBox="0 0 101 23">
        
            <path
                d="M50.7097 12.5299C48.6591 12.5299 46.9877 14.0495 46.9877 16.1425C46.9877 18.2228 48.6591 19.7552 50.7097 19.7552C52.7611 19.7552 54.4325 18.2228 54.4325 16.1425C54.4316 14.0495 52.7603 12.5299 50.7097 12.5299ZM50.7097 18.3332C49.5858 18.3332 48.6172 17.4303 48.6172 16.1434C48.6172 14.8429 49.5867 13.9535 50.7097 13.9535C51.8335 13.9535 52.8021 14.8429 52.8021 16.1434C52.8021 17.4294 51.8335 18.3332 50.7097 18.3332ZM42.5892 12.5299C40.5386 12.5299 38.8673 14.0495 38.8673 16.1425C38.8673 18.2228 40.5386 19.7552 42.5892 19.7552C44.6407 19.7552 46.312 18.2228 46.312 16.1425C46.312 14.0495 44.6407 12.5299 42.5892 12.5299ZM42.5892 18.3332C41.4654 18.3332 40.4968 17.4303 40.4968 16.1434C40.4968 14.8429 41.4663 13.9535 42.5892 13.9535C43.713 13.9535 44.6817 14.8429 44.6817 16.1434C44.6825 17.4294 43.713 18.3332 42.5892 18.3332ZM32.9308 13.6392V15.1716H36.6955C36.583 16.0338 36.2883 16.6632 35.8384 17.1007C35.2909 17.6341 34.4339 18.2228 32.9308 18.2228C30.6134 18.2228 28.8017 16.4024 28.8017 14.1447C28.8017 11.8869 30.6134 10.0665 32.9308 10.0665C34.181 10.0665 35.0939 10.5456 35.7678 11.1614L36.8777 10.0801C35.9361 9.20434 34.6867 8.53414 32.9308 8.53414C29.7564 8.53414 27.0876 11.0519 27.0876 14.1447C27.0876 17.2374 29.7564 19.7552 32.9308 19.7552C34.644 19.7552 35.937 19.2073 36.9474 18.1812C37.9867 17.1686 38.3102 15.745 38.3102 14.5957C38.3102 14.2406 38.2822 13.9119 38.2256 13.6384L32.9308 13.6392ZM72.4328 14.8293C72.1242 14.0223 71.1826 12.5299 69.2584 12.5299C67.3482 12.5299 65.7605 13.9943 65.7605 16.1425C65.7605 18.1676 67.3342 19.7552 69.4406 19.7552C71.1398 19.7552 72.1233 18.7426 72.5313 18.154L71.2671 17.3326C70.846 17.9348 70.2697 18.3315 69.4406 18.3315C68.6123 18.3315 68.0221 17.962 67.6428 17.2366L72.6011 15.2387L72.4328 14.8293ZM67.376 16.0338C67.3342 14.6373 68.4859 13.9263 69.3151 13.9263C69.9611 13.9263 70.5086 14.2415 70.6917 14.6925L67.376 16.0338ZM63.3455 19.5369H64.9741V8.91808H63.3455V19.5369ZM60.6758 13.3377H60.62C60.2547 12.913 59.552 12.5299 58.668 12.5299C56.8135 12.5299 55.1143 14.1175 55.1143 16.157C55.1143 18.182 56.8135 19.756 58.668 19.756C59.5529 19.756 60.2547 19.3729 60.62 18.9355H60.6758V19.4553C60.6758 20.8373 59.9173 21.5764 58.6959 21.5764C57.6985 21.5764 57.0803 20.879 56.8275 20.2903L55.409 20.8654C55.8161 21.8227 56.8972 23 58.6959 23C60.6061 23 62.2216 21.9051 62.2216 19.2362V12.7499H60.6767L60.6758 13.3377ZM58.8083 18.3332C57.6845 18.3332 56.7438 17.4158 56.7438 16.157C56.7438 14.8837 57.6845 13.9535 58.8083 13.9535C59.9173 13.9535 60.7883 14.8837 60.7883 16.157C60.7883 17.4158 59.9173 18.3332 58.8083 18.3332ZM80.065 8.91808H76.167V19.5369H77.793V15.5139H80.0642C81.8671 15.5139 83.6405 14.2423 83.6405 12.2164C83.6405 10.1905 81.868 8.91808 80.065 8.91808ZM80.1069 14.0359H77.793V10.3961H80.1069C81.3231 10.3961 82.0136 11.3772 82.0136 12.2164C82.0136 13.0387 81.3231 14.0359 80.1069 14.0359ZM90.1611 12.5112C88.9832 12.5112 87.7635 13.0166 87.2587 14.137L88.7025 14.724C89.0111 14.137 89.5865 13.945 90.189 13.945C91.0303 13.945 91.8856 14.4369 91.8996 15.3109V15.4205C91.6049 15.2566 90.9737 15.0111 90.203 15.0111C88.6467 15.0111 87.0617 15.8444 87.0617 17.4014C87.0617 18.8225 88.3381 19.7373 89.7679 19.7373C90.8612 19.7373 91.4645 19.2591 91.8429 18.6985H91.8987V19.5182H93.4698V15.4468C93.4707 13.5628 92.0251 12.5112 90.1611 12.5112ZM89.9641 18.3307C89.4322 18.3307 88.6885 18.0707 88.6885 17.4286C88.6885 16.6089 89.6145 16.2946 90.4139 16.2946C91.128 16.2946 91.4654 16.4449 91.8996 16.6496C91.7732 17.6341 90.9039 18.3307 89.9641 18.3307ZM99.1909 12.7431L97.326 17.347H97.2702L95.3347 12.7431H93.5823L96.4847 19.1775L94.8299 22.7571H96.5265L101 12.7431H99.1909ZM84.5385 19.5369H86.1645V8.91808H84.5385V19.5369Z"
                 />
            <path
                d="M32.3397 2.86935C32.3397 3.58118 32.1235 4.14775 31.6902 4.57077C31.1984 5.07363 30.5567 5.32506 29.7686 5.32506C29.0136 5.32506 28.371 5.07023 27.8435 4.56057C27.3152 4.05006 27.051 3.41808 27.051 2.66379C27.051 1.90864 27.3152 1.27666 27.8435 0.766999C28.371 0.256489 29.0136 0.00165974 29.7686 0.00165974C30.1435 0.00165974 30.5018 0.0730117 30.8418 0.214867C31.1827 0.357572 31.4556 0.546996 31.6596 0.783988L31.2002 1.23249C30.854 0.829008 30.3771 0.627692 29.7677 0.627692C29.2167 0.627692 28.7407 0.816267 28.3387 1.19342C27.9368 1.57056 27.7363 2.06069 27.7363 2.66294C27.7363 3.26519 27.9368 3.75531 28.3387 4.13246C28.7407 4.50961 29.2167 4.69818 29.7677 4.69818C30.3519 4.69818 30.8392 4.50876 31.2289 4.12906C31.4818 3.88187 31.6283 3.53785 31.6675 3.097H29.7677V2.48456H32.3022C32.3284 2.61792 32.3397 2.74618 32.3397 2.86935Z"
                 />
            <path
                d="M36.359 0.740715H33.9771V2.35634H36.1254V2.96878H33.9771V4.5844H36.359V5.21129H33.3049V0.114682H36.359V0.740715Z"
                 />
            <path d="M39.1933 5.21129H38.5211V0.740715H37.0599V0.114682H40.6545V0.740715H39.1933V5.21129Z"
                 />
            <path d="M43.2553 5.21129V0.114682H43.9275V5.21129H43.2553Z"  />
            <path d="M46.9085 5.21129H46.2363V0.740715H44.775V0.114682H48.3697V0.740715H46.9085V5.21129Z"
                 />
            <path
                d="M55.1743 4.55297C54.6599 5.06773 54.0209 5.3251 53.2562 5.3251C52.4916 5.3251 51.8526 5.06773 51.339 4.55297C50.8246 4.03821 50.5683 3.40793 50.5683 2.66298C50.5683 1.91802 50.8246 1.28774 51.339 0.772985C51.8526 0.258228 52.4916 0 53.2562 0C54.0165 0 54.6547 0.259077 55.1708 0.776383C55.687 1.29369 55.945 1.92227 55.945 2.66298C55.945 3.40793 55.6879 4.03821 55.1743 4.55297ZM51.8351 4.1257C52.2222 4.50795 52.6956 4.69822 53.2562 4.69822C53.8168 4.69822 54.2911 4.5071 54.6774 4.1257C55.0645 3.74346 55.2589 3.25588 55.2589 2.66298C55.2589 2.07007 55.0645 1.5825 54.6774 1.20025C54.2911 0.818005 53.8168 0.627732 53.2562 0.627732C52.6956 0.627732 52.2222 0.818855 51.8351 1.20025C51.4489 1.5825 51.2545 2.07007 51.2545 2.66298C51.2545 3.25588 51.4489 3.74346 51.8351 4.1257Z"
                 />
            <path
                d="M56.8884 5.21129V0.114682H57.7062L60.2485 4.07899H60.2773L60.2485 3.09705V0.114682H60.9207V5.21129H60.2189L57.5589 1.05416H57.5301L57.5589 2.0361V5.21129H56.8884Z"
                 />
            <path
                d="M0.137053 0.874539C0.0485193 1.09158 0 1.35192 0 1.651V20.4371C0 20.7366 0.0485079 20.9968 0.137022 21.2137L10.5743 11.0434L0.137053 0.874539Z"
                 />
            <path
                d="M0.821333 21.8995C1.20245 22.0349 1.68807 21.9746 2.21538 21.6832L14.5091 14.877L11.2684 11.7196L0.821333 21.8995Z"
                 />
            <path
                d="M15.3948 14.3875L19.2174 12.2715C20.4354 11.5962 20.4354 10.4928 19.2174 9.81832L15.3926 7.70086L11.9624 11.0433L15.3948 14.3875Z"
                 />
            <path
                d="M14.5075 7.21082L2.21538 0.405734C1.68826 0.113894 1.20279 0.0537309 0.821743 0.189156L11.2683 10.3671L14.5075 7.21082Z"
                 />
       
    </symbol>
</svg>