<svg width="64" height="64" fill="none" xmlns="http://www.w3.org/2000/svg"><g filter="url(#filter0_b)"><rect width="64" height="64" rx="32" fill="#fff"/></g><path d="M28.744 30.768l-2.083 2.083c-.997-1.012-1.965-2.318-2.625-4.312l2.845-.72a7.84 7.84 0 001.863 2.949zm1.79-7.568l-5.867-5.867L18.8 23.2h4.43c.029 1.188.117 2.259.278 3.183l2.845-.72a19.381 19.381 0 01-.19-2.463h4.37zm14.666 0l-5.867-5.867-5.866 5.867h4.385c-.147 5.397-1.877 6.967-3.725 8.624-.734.645-1.482 1.35-2.127 2.273-.499-.718-1.07-1.29-1.657-1.818l-2.068 2.068c1.364 1.246 2.258 2.258 2.258 4.986v7.334h2.934v-7.334c0-2.962 1.041-3.901 2.625-5.324 2.024-1.818 4.517-4.077 4.693-10.81H45.2z" fill="#fff"/><path d="M38.667 28v-2.666a6.667 6.667 0 00-13.334 0V28a4 4 0 00-4 4v9.334a4 4 0 004 4h13.334a4 4 0 004-4V32a4 4 0 00-4-4zM28 25.334a4 4 0 018 0V28h-8v-2.666zm12 16a1.333 1.333 0 01-1.333 1.333H25.333A1.333 1.333 0 0124 41.333V32a1.333 1.333 0 011.333-1.333h13.334A1.333 1.333 0 0140 32v9.334z" fill="#8C08A0"/><defs><filter id="filter0_b" x="-24" y="-24" width="112" height="112" filterUnits="userSpaceOnUse" color-interpolation-filters="sRGB"><feFlood flood-opacity="0" result="BackgroundImageFix"/><feGaussianBlur in="BackgroundImage" stdDeviation="12"/><feComposite in2="SourceAlpha" operator="in" result="effect1_backgroundBlur"/><feBlend in="SourceGraphic" in2="effect1_backgroundBlur" result="shape"/></filter></defs></svg>