<svg width="64" height="64" fill="none" xmlns="http://www.w3.org/2000/svg"><g filter="url(#filter0_b)"><rect width="64" height="64" rx="32" fill="#fff"/></g><path d="M45.333 28.894A1.334 1.334 0 0044.187 28L36.6 26.894 33.2 20a1.334 1.334 0 00-2.4 0l-3.4 6.88L19.813 28a1.333 1.333 0 00-1.08.907 1.334 1.334 0 00.334 1.333l5.506 5.334-1.333 7.573a1.333 1.333 0 001.933 1.427L32 41.014l6.8 3.573c.187.105.399.16.613.16.283.001.558-.088.787-.253a1.333 1.333 0 00.533-1.334L39.4 35.587l5.507-5.333a1.333 1.333 0 00.426-1.36zm-8.2 5.333a1.332 1.332 0 00-.386 1.187l.96 5.586-5.014-2.666a1.333 1.333 0 00-1.253 0L26.427 41l.96-5.586A1.332 1.332 0 0027 34.227l-4-4 5.613-.813a1.333 1.333 0 001.014-.734L32 23.6l2.507 5.094a1.333 1.333 0 001.013.733l5.613.813-4 3.987z" fill="#8C08A0"/><defs><filter id="filter0_b" x="-24" y="-24" width="112" height="112" filterUnits="userSpaceOnUse" color-interpolation-filters="sRGB"><feFlood flood-opacity="0" result="BackgroundImageFix"/><feGaussianBlur in="BackgroundImage" stdDeviation="12"/><feComposite in2="SourceAlpha" operator="in" result="effect1_backgroundBlur"/><feBlend in="SourceGraphic" in2="effect1_backgroundBlur" result="shape"/></filter></defs></svg>