<svg width="64" height="64" fill="none" xmlns="http://www.w3.org/2000/svg"><g filter="url(#filter0_b)"><rect width="64" height="64" rx="32" fill="#fff"/></g><path fill-rule="evenodd" clip-rule="evenodd" d="M34 44v-2h-2v2H20V18h-2v26a2 2 0 002 2h26v-2H34zm-2-6v2h2v-2h-2zm8.88-.696a3.44 3.44 0 001.173-1.625l1.896.637C43.899 36.466 42.679 40 39 40c-2.302 0-3.715-1.711-4.798-4H32v-2h1.369a86.169 86.169 0 01-.782-2.214C31.277 27.958 29.92 24 27 24a3.44 3.44 0 00-3.053 2.321l-1.896-.637C22.101 25.534 23.321 22 27 22c2.581 0 4.212 1.715 5.422 4H34v2h-.658c.414 1.028.782 2.1 1.138 3.138C35.689 34.667 36.83 38 39 38a3.44 3.44 0 001.88-.696zM32 22v2h2v-2h-2zm0-2v-2h2v2h-2z" fill="#FC006A"/><defs><filter id="filter0_b" x="-24" y="-24" width="112" height="112" filterUnits="userSpaceOnUse" color-interpolation-filters="sRGB"><feFlood flood-opacity="0" result="BackgroundImageFix"/><feGaussianBlur in="BackgroundImage" stdDeviation="12"/><feComposite in2="SourceAlpha" operator="in" result="effect1_backgroundBlur"/><feBlend in="SourceGraphic" in2="effect1_backgroundBlur" result="shape"/></filter></defs></svg>