<svg width="64" height="65" fill="none" xmlns="http://www.w3.org/2000/svg"><g filter="url(#filter0_b)"><rect y=".5" width="64" height="64" rx="32" fill="#fff"/></g><path d="M44.947 25.207l-1.894-1.88 1.894-1.88a1.34 1.34 0 00-1.894-1.894L29 33.607a6.666 6.666 0 101.893 1.893l6.507-6.52 1.88 1.893a1.333 1.333 0 00.947.387 1.333 1.333 0 00.946-2.28l-1.893-1.813 1.893-1.894 1.88 1.894a1.334 1.334 0 00.947.386 1.335 1.335 0 00.947-.386 1.334 1.334 0 000-1.96zm-19.614 17.96a4 4 0 110-8 4 4 0 010 8z" fill="#FC006A"/><defs><filter id="filter0_b" x="-24" y="-23.5" width="112" height="112" filterUnits="userSpaceOnUse" color-interpolation-filters="sRGB"><feFlood flood-opacity="0" result="BackgroundImageFix"/><feGaussianBlur in="BackgroundImage" stdDeviation="12"/><feComposite in2="SourceAlpha" operator="in" result="effect1_backgroundBlur"/><feBlend in="SourceGraphic" in2="effect1_backgroundBlur" result="shape"/></filter></defs></svg>