<svg width="64" height="64" fill="none" xmlns="http://www.w3.org/2000/svg"><g filter="url(#filter0_b)"><rect width="64" height="64" rx="32" fill="#fff"/></g><path fill-rule="evenodd" clip-rule="evenodd" d="M23 21.21a.77.77 0 01-.46-1.38A15.46 15.46 0 0132 17c2.66 0 6.48.45 9.5 2.62a.77.77 0 01.18 1.07.78.78 0 01-1.08.17 15 15 0 00-8.6-2.33 14 14 0 00-8.5 2.52.74.74 0 01-.5.16zm21.23 7.05a.779.779 0 01-.63-.33c-1.73-2.44-4.82-5.69-11.6-5.69a14.001 14.001 0 00-11.63 5.7.77.77 0 01-1.07.17.758.758 0 01-.15-1.11A15.54 15.54 0 0132 20.71c5.61 0 9.81 2.08 12.84 6.34a.77.77 0 01-.61 1.21zM27.845 46.865a.78.78 0 00.435.135c.07.008.14.008.21 0 5-1.91 8-5.89 8-10.63a4.31 4.31 0 00-4.52-4.56c-2.67 0-4.2 1.58-4.56 4.69a2.74 2.74 0 01-3 2.48 2.77 2.77 0 01-2.79-3.06 10.18 10.18 0 0110.38-10 10.45 10.45 0 0110.47 10.4 17.25 17.25 0 01-1.27 5.91.76.76 0 00.992.997.78.78 0 00.418-.407 18.66 18.66 0 001.39-6.5 12 12 0 00-12-11.93 11.71 11.71 0 00-11.84 11.5 4.269 4.269 0 004.32 4.59A4.27 4.27 0 0029 36.65c.24-2.35 1.14-3.35 3-3.35a2.8 2.8 0 013 3c0 4.09-2.63 7.53-7 9.21a.75.75 0 00-.44 1 .78.78 0 00.285.355zm7.925-.585a.81.81 0 01-.52-.2.76.76 0 010-1.08 12.63 12.63 0 003.54-8.68c0-1.56-.48-6.65-6.7-6.65a6.83 6.83 0 00-4.94 1.87A6.17 6.17 0 0025.32 36a.77.77 0 01-.77.76.76.76 0 01-.77-.76A7.728 7.728 0 0126 30.46a8.338 8.338 0 016-2.32c6.08 0 8.24 4.4 8.24 8.18a14.09 14.09 0 01-3.9 9.68.751.751 0 01-.57.28zM23.1 43.65a14.14 14.14 0 001.56.09A8.2 8.2 0 0030.09 42a7.889 7.889 0 002.68-5.62.78.78 0 00-.72-.81.75.75 0 00-.82.71 6.371 6.371 0 01-2.12 4.53c-1.39 1.16-3.35 1.6-5.84 1.32a.764.764 0 10-.17 1.52z" fill="#FC006A"/><defs><filter id="filter0_b" x="-24" y="-24" width="112" height="112" filterUnits="userSpaceOnUse" color-interpolation-filters="sRGB"><feFlood flood-opacity="0" result="BackgroundImageFix"/><feGaussianBlur in="BackgroundImage" stdDeviation="12"/><feComposite in2="SourceAlpha" operator="in" result="effect1_backgroundBlur"/><feBlend in="SourceGraphic" in2="effect1_backgroundBlur" result="shape"/></filter></defs></svg>