<svg width="304" height="304" fill="none" xmlns="http://www.w3.org/2000/svg"><rect width="304" height="304" rx="84.444" fill="url(#paint0_linear)"/><mask id="mask0" maskUnits="userSpaceOnUse" x="0" y="0" width="304" height="304"><rect width="304" height="304" rx="84.444" fill="#fff"/></mask><g mask="url(#mask0)"><g filter="url(#filter0_f)"><rect x="277" y="237" width="169" height="19" rx="8.444" transform="rotate(-90 277 237)" fill="#EE92FD"/></g><g filter="url(#filter1_f)"><rect x="277" y="101" width="33" height="19" rx="8.444" transform="rotate(-90 277 101)" fill="#EE92FD"/></g><g filter="url(#filter2_f)"><rect x="7" y="237" width="169" height="19" rx="8.444" transform="rotate(-90 7 237)" fill="#EE92FD"/></g><g filter="url(#filter3_f)"><rect x="7" y="101" width="33" height="19" rx="8.444" transform="rotate(-90 7 101)" fill="#EE92FD"/></g><g filter="url(#filter4_f)"><rect x="44" y="19" width="216" height="24" rx="8.444" fill="#EE92FD"/></g></g><g filter="url(#filter5_d)"><path fill-rule="evenodd" clip-rule="evenodd" d="M151.825 87h.35l.479.04.129.019.471.098.462.144.448.188.431.234.41.279.312.257a74.92 74.92 0 0051.525 18.908l1.67-.058a5.01 5.01 0 015.033 3.604 85.754 85.754 0 01-7.608 66.23c-11.363 20.133-30.371 34.778-52.68 40.587a4.98 4.98 0 01-2.514 0c-22.309-5.809-41.318-20.454-52.68-40.587a85.756 85.756 0 01-7.608-66.23 5.008 5.008 0 015.032-3.604 74.911 74.911 0 0051.932-17.752l1.664-1.42.423-.273.33-.175.448-.189.461-.143.472-.098.477-.052.131-.007z" fill="url(#paint1_linear)"/></g><defs><filter id="filter0_f" x="244.864" y="35.864" width="83.272" height="233.272" filterUnits="userSpaceOnUse" color-interpolation-filters="sRGB"><feFlood flood-opacity="0" result="BackgroundImageFix"/><feBlend in="SourceGraphic" in2="BackgroundImageFix" result="shape"/><feGaussianBlur stdDeviation="16.068" result="effect1_foregroundBlur"/></filter><filter id="filter1_f" x="244.864" y="35.864" width="83.272" height="97.272" filterUnits="userSpaceOnUse" color-interpolation-filters="sRGB"><feFlood flood-opacity="0" result="BackgroundImageFix"/><feBlend in="SourceGraphic" in2="BackgroundImageFix" result="shape"/><feGaussianBlur stdDeviation="16.068" result="effect1_foregroundBlur"/></filter><filter id="filter2_f" x="-25.136" y="35.864" width="83.272" height="233.272" filterUnits="userSpaceOnUse" color-interpolation-filters="sRGB"><feFlood flood-opacity="0" result="BackgroundImageFix"/><feBlend in="SourceGraphic" in2="BackgroundImageFix" result="shape"/><feGaussianBlur stdDeviation="16.068" result="effect1_foregroundBlur"/></filter><filter id="filter3_f" x="-25.136" y="35.864" width="83.272" height="97.272" filterUnits="userSpaceOnUse" color-interpolation-filters="sRGB"><feFlood flood-opacity="0" result="BackgroundImageFix"/><feBlend in="SourceGraphic" in2="BackgroundImageFix" result="shape"/><feGaussianBlur stdDeviation="16.068" result="effect1_foregroundBlur"/></filter><filter id="filter4_f" x="11.864" y="-13.136" width="280.272" height="88.272" filterUnits="userSpaceOnUse" color-interpolation-filters="sRGB"><feFlood flood-opacity="0" result="BackgroundImageFix"/><feBlend in="SourceGraphic" in2="BackgroundImageFix" result="shape"/><feGaussianBlur stdDeviation="16.068" result="effect1_foregroundBlur"/></filter><filter id="filter5_d" x="72.644" y="81.089" width="158.711" height="159.402" filterUnits="userSpaceOnUse" color-interpolation-filters="sRGB"><feFlood flood-opacity="0" result="BackgroundImageFix"/><feColorMatrix in="SourceAlpha" values="0 0 0 0 0 0 0 0 0 0 0 0 0 0 0 0 0 0 127 0"/><feOffset dy="8.444"/><feGaussianBlur stdDeviation="7.178"/><feColorMatrix values="0 0 0 0 0 0 0 0 0 0 0 0 0 0 0 0 0 0 0.110987 0"/><feBlend in2="BackgroundImageFix" result="effect1_dropShadow"/><feBlend in="SourceGraphic" in2="effect1_dropShadow" result="shape"/></filter><linearGradient id="paint0_linear" x1="0" y1="0" x2="0" y2="304" gradientUnits="userSpaceOnUse"><stop stop-color="#FC006A"/><stop offset=".999" stop-color="#A24ABF"/></linearGradient><linearGradient id="paint1_linear" x1="87" y1="87" x2="87" y2="217.691" gradientUnits="userSpaceOnUse"><stop stop-color="#FEFAFF"/><stop offset="1" stop-color="#E596FF"/></linearGradient></defs></svg>